<svg xmlns="http://www.w3.org/2000/svg" viewBox="6 6 88 88" width="100%" height="100%">
  <path d="M 50 8 C 25 18, 12 32, 12 50 C 12 68, 25 82, 50 92 Z" fill="#004F2E"/>
  <path d="M 50 8 C 75 18, 88 32, 88 50 C 88 68, 75 82, 50 92 Z" fill="#006B3F"/>
  
  <path d="M 33 25 Q 75 35, 50 50 T 67 75" fill="none" stroke="#C8A24A" stroke-width="3" stroke-linecap="round" />
  <path d="M 67 25 Q 25 35, 50 50 T 33 75" fill="none" stroke="#FFFFFF" stroke-width="3" stroke-linecap="round" />
  
  <circle cx="33" cy="25" r="4" fill="#C8A24A" />
  <circle cx="67" cy="25" r="4" fill="#FFFFFF" />
  <circle cx="67" cy="75" r="4" fill="#FFFFFF" />
  <circle cx="33" cy="75" r="4" fill="#C8A24A" />
  <circle cx="50" cy="50" r="5" fill="#C8A24A" />
</svg>
