<svg xmlns="http://www.w3.org/2000/svg" viewBox="0 0 360 100" width="100%" height="100%">
  <defs>
    <mask id="cutout-white">
      <rect width="100%" height="100%" fill="white" />
      <path d="M 33 25 Q 75 35, 50 50 T 67 75" fill="none" stroke="black" stroke-width="2.5" stroke-linecap="round" />
      <path d="M 67 25 Q 25 35, 50 50 T 33 75" fill="none" stroke="black" stroke-width="2.5" stroke-linecap="round" />
      <circle cx="33" cy="25" r="3.5" fill="black" />
      <circle cx="67" cy="25" r="3.5" fill="black" />
      <circle cx="67" cy="75" r="3.5" fill="black" />
      <circle cx="33" cy="75" r="3.5" fill="black" />
      <circle cx="50" cy="50" r="4.5" fill="black" />
      <line x1="43" y1="34" x2="57" y2="34" stroke="black" stroke-width="1.5" />
      <line x1="39" y1="42" x2="61" y2="42" stroke="black" stroke-width="1.5" />
      <line x1="39" y1="58" x2="61" y2="58" stroke="black" stroke-width="1.5" />
      <line x1="43" y1="66" x2="57" y2="66" stroke="black" stroke-width="1.5" />
    </mask>
  </defs>

  <g transform="translate(0, 0)">
    <circle cx="50" cy="50" r="45" fill="none" stroke="#FFFFFF" stroke-opacity="0.4" stroke-width="1" stroke-dasharray="3 4"/>
    <g mask="url(#cutout-white)">
      <path d="M 50 8 C 25 18, 12 32, 12 50 C 12 68, 25 82, 50 92 Z" fill="#FFFFFF"/>
      <path d="M 50 8 C 75 18, 88 32, 88 50 C 88 68, 75 82, 50 92 Z" fill="#FFFFFF"/>
    </g>
  </g>

  <text x="115" y="48" font-family="system-ui, -apple-system, 'Segoe UI', Roboto, Helvetica, Arial, sans-serif" font-weight="800" font-size="32" fill="#FFFFFF" letter-spacing="0.5">JKUAT</text>
  <text x="115" y="82" font-family="system-ui, -apple-system, 'Segoe UI', Roboto, Helvetica, Arial, sans-serif" font-weight="600" font-size="28" fill="#FFFFFF" letter-spacing="0">Bioresources</text>
</svg>
